<svg xmlns="http://www.w3.org/2000/svg" xmlns:xlink="http://www.w3.org/1999/xlink" xmlns:fi="http://pattern.flaticon.com/" x="0" y="0" width="700" height="350" viewBox="0 0 700 350"><rect x="0px" y="0px" width="100%" height="100%" opacity="1" fill="#fafff7"/><defs><g transform="matrix(0.0390625 0 0 0.0390625 165 165)" id="L1_97"><path d="M214.582,251.558c12.28,10.365,24.979,21.083,38.473,32.778c2.819,2.443,6.321,3.665,9.824,3.665  c3.502,0,7.005-1.222,9.824-3.665c13.492-11.693,26.189-22.41,38.469-32.773c21.342-18.014,39.773-33.57,55.767-48.66  c31.053-29.298,59.787-62.553,59.787-107.114c0-25.329-8.695-49.05-24.483-66.794C385.606,10.297,362.543,0,337.303,0  c-28.172,0-52.593,13.321-70.622,38.522c-1.352,1.889-2.617,3.779-3.802,5.649c-1.184-1.871-2.449-3.76-3.801-5.649  C241.049,13.321,216.628,0,188.456,0c-25.24,0-48.303,10.297-64.939,28.994c-15.788,17.744-24.483,41.465-24.483,66.794  c0,27.525,10.681,52.924,33.611,79.934C152.653,199.287,181.352,223.51,214.582,251.558z" fill="#ff3f2e"/><path d="M503.034,373.999l-72.001,96c-19.799,26.4-51,42.001-84,42.001h-133.8  c-46.8,0-92.699-9.6-135.899-27.9l-3.3-92.401c20.099-96.301,119.7-120.3,177.299-69.6c6.301,5.099,13.5,8.401,20.7,9.3  c2.1,0.601,3.9,0.601,5.7,0.601h54.3c5.4,0,10.499,1.5,15,4.2c8.699,4.799,14.7,14.399,15,25.499v0.3c0,11.1-6,20.7-15,25.8  c-4.501,2.701-9.6,4.2-15,4.2h-91.5c-8.401,0-15,6.599-15,15c0,8.399,6.599,15,15,15h116.4c15,0,25.8-6.301,35.099-16.8l68.101-78.6  c10.8-11.7,29.399-12.601,40.499-3.001c2.701,2.1,5.099,4.501,6.899,7.5C514.434,341.3,513.533,360.2,503.034,373.999z" fill="#f2d1a5"/><path d="M122.034,347c0-24.814-20.186-45-45-45h-62c-8.291,0-15,6.709-15,15v180c0,8.291,6.709,15,15,15h62  c24.814,0,45-20.186,45-45V347z" fill="#1ea1e3"/><g><path d="M262.879,392h69.154c5.4,0,10.499-1.5,15-4.2c9-5.099,15-14.7,15-25.8v-0.3   c-0.3-11.1-6.301-20.7-15-25.499c-4.501-2.701-9.6-4.2-15-4.2h-54.3c-1.8,0-3.6,0-5.7-0.601c-3.076-0.384-6.148-1.231-9.154-2.446   V392z" fill="#f2bb88"/><path d="M431.033,469.999l72.001-96c10.499-13.799,11.4-32.699,4.499-42.9c-1.8-2.999-4.198-5.4-6.899-7.5   c-11.1-9.6-29.7-8.699-40.499,3.001l-68.101,78.6c-9.3,10.499-20.1,16.8-35.1,16.8h-94.055v90h84.154   C380.033,512,411.234,496.399,431.033,469.999z" fill="#f2bb88"/></g><path d="M272.703,284.335c13.492-11.693,26.189-22.41,38.469-32.773c21.342-18.014,39.773-33.57,55.767-48.66  c31.053-29.298,59.787-62.553,59.787-107.114c0-25.329-8.695-49.05-24.483-66.794C385.606,10.297,362.543,0,337.303,0  c-28.172,0-52.593,13.321-70.622,38.522c-1.352,1.889-2.617,3.779-3.802,5.649V288C266.381,288,269.884,286.778,272.703,284.335z" fill="#cf0404"/></g><path d="M165,0C74.019,0,0,74.019,0,165s74.019,165,165,165c90.982,0,165-74.019,165-165S255.982,0,165,0z" transform="matrix(0.03030303120613098 0 0 0.03030303120613098 345 82.5)" id="L1_103" fill="#c9a7d9"/><g transform="matrix(0.07812485098838806 0 0 0.07812485098838806 242.5 67.5)" id="L1_100"><path d="M477.781,112.969L452,90c0-16.5-13.5-30-30-30c-15.901,0-30,12.9-30,30v126.68l-90,82.606  c4.294-0.956,98.688,28.436,103.198,28.436L452,287.943l37.5-25.787L477.781,112.969z" fill="#e3a76f"/><path d="M120,218.105V90c0-17.1-14.099-30-30-30c-16.5,0-30,13.5-30,30l-28.594,39.969l5.625,93.75  L60,320.076c10.984-13.76,27.955-22.354,46.802-22.354c4.51,0,98.904,0.608,103.198,1.564L120,218.105z" fill="#f2bb88"/><path d="M158.101,186.499c-11.7-11.699-30.901-11.699-42.601,0c-11.256,11.256-11.892,30.409,0,42.301l30,30  c6.232,6.228,5.75,15.552,0,21.299c-5.042,5.606-15.916,5.652-20.999,0L73.2,228.8C64.799,220.399,60,208.999,60,197V30  C60,12.9,45.901,0,30,0C13.5,0,0,13.5,0,30v210.5c0,13.499,3.6,26.699,10.8,38.399l72.9,121.5c4.2,7.2,6.301,15,6.301,23.101V497  c0,8.399,6.599,15,15,15h135V304.999c0-23.399-9.3-45.899-25.8-62.401L158.101,186.499z" fill="#f2d1a5"/><path d="M345.399,86.499c0,35.402-32.999,60.3-60.3,83.401c-5.999,5.099-12.599,10.499-19.199,16.5  c-2.7,2.4-6.3,3.6-9.9,3.6s-7.2-1.199-9.901-3.6c-6.599-6-13.2-11.4-19.199-16.5c-35.101-29.399-60.3-51-60.3-83.401  C166.6,55.3,189.4,31,218.8,31c16.5,0,28.799,7.5,37.2,17.1c8.401-9.6,20.7-17.1,37.2-17.1C322.599,31,345.399,55.3,345.399,86.499z  " fill="#ff3f2e"/><path d="M482,0c-15.901,0-30,12.9-30,30v167c0,11.999-4.799,23.399-13.2,31.8l-51.301,51.299  c-5.042,5.606-15.916,5.652-20.999,0c-5.75-5.747-6.232-15.071,0-21.299l30-30c5.7-5.7,8.699-13.5,8.699-21  c0-7.8-2.999-15.601-8.699-21.301c-11.7-11.699-30.901-11.699-42.601,0l-56.1,56.1C281.3,259.1,272,281.6,272,304.999V512h135  c8.401,0,15-6.601,15-15v-73.5c0-8.101,2.1-15.901,6.301-23.101l72.9-121.5c7.2-11.7,10.8-24.901,10.8-38.399V30  C512,13.5,498.5,0,482,0z" fill="#f2bb88"/><path d="M345.399,86.499c0,35.402-32.999,60.3-60.3,83.401c-5.999,5.099-12.599,10.499-19.199,16.5  c-2.7,2.4-6.3,3.6-9.9,3.6V48.1c8.401-9.6,20.7-17.1,37.2-17.1C322.599,31,345.399,55.3,345.399,86.499z" fill="#cf0404"/></g><path d="M165,0C74.019,0,0,74.019,0,165s74.019,165,165,165c90.982,0,165-74.019,165-165S255.982,0,165,0z" transform="matrix(0.03030303120613098 0 0 0.03030303120613098 82.5 257.5)" id="L1_104" fill="#5ee4a5"/><g transform="matrix(0.1171875 0 0 0.1171875 71.00000040054329 61)" id="L1_105"><path d="M214.582,251.558c12.28,10.365,24.979,21.083,38.473,32.778c2.819,2.443,6.321,3.665,9.824,3.665  c3.502,0,7.005-1.222,9.824-3.665c13.492-11.693,26.189-22.41,38.469-32.773c21.342-18.014,39.773-33.57,55.767-48.66  c31.053-29.298,59.787-62.553,59.787-107.114c0-25.329-8.695-49.05-24.483-66.794C385.606,10.297,362.543,0,337.303,0  c-28.172,0-52.593,13.321-70.622,38.522c-1.352,1.889-2.617,3.779-3.802,5.649c-1.184-1.871-2.449-3.76-3.801-5.649  C241.049,13.321,216.628,0,188.456,0c-25.24,0-48.303,10.297-64.939,28.994c-15.788,17.744-24.483,41.465-24.483,66.794  c0,27.525,10.681,52.924,33.611,79.934C152.653,199.287,181.352,223.51,214.582,251.558z" fill="#ff3f2e"/><path d="M503.034,373.999l-72.001,96c-19.799,26.4-51,42.001-84,42.001h-133.8  c-46.8,0-92.699-9.6-135.899-27.9l-3.3-92.401c20.099-96.301,119.7-120.3,177.299-69.6c6.301,5.099,13.5,8.401,20.7,9.3  c2.1,0.601,3.9,0.601,5.7,0.601h54.3c5.4,0,10.499,1.5,15,4.2c8.699,4.799,14.7,14.399,15,25.499v0.3c0,11.1-6,20.7-15,25.8  c-4.501,2.701-9.6,4.2-15,4.2h-91.5c-8.401,0-15,6.599-15,15c0,8.399,6.599,15,15,15h116.4c15,0,25.8-6.301,35.099-16.8l68.101-78.6  c10.8-11.7,29.399-12.601,40.499-3.001c2.701,2.1,5.099,4.501,6.899,7.5C514.434,341.3,513.533,360.2,503.034,373.999z" fill="#f2d1a5"/><path d="M122.034,347c0-24.814-20.186-45-45-45h-62c-8.291,0-15,6.709-15,15v180c0,8.291,6.709,15,15,15h62  c24.814,0,45-20.186,45-45V347z" fill="#1ea1e3"/><g><path d="M262.879,392h69.154c5.4,0,10.499-1.5,15-4.2c9-5.099,15-14.7,15-25.8v-0.3   c-0.3-11.1-6.301-20.7-15-25.499c-4.501-2.701-9.6-4.2-15-4.2h-54.3c-1.8,0-3.6,0-5.7-0.601c-3.076-0.384-6.148-1.231-9.154-2.446   V392z" fill="#f2bb88"/><path d="M431.033,469.999l72.001-96c10.499-13.799,11.4-32.699,4.499-42.9c-1.8-2.999-4.198-5.4-6.899-7.5   c-11.1-9.6-29.7-8.699-40.499,3.001l-68.101,78.6c-9.3,10.499-20.1,16.8-35.1,16.8h-94.055v90h84.154   C380.033,512,411.234,496.399,431.033,469.999z" fill="#f2bb88"/></g><path d="M272.703,284.335c13.492-11.693,26.189-22.41,38.469-32.773c21.342-18.014,39.773-33.57,55.767-48.66  c31.053-29.298,59.787-62.553,59.787-107.114c0-25.329-8.695-49.05-24.483-66.794C385.606,10.297,362.543,0,337.303,0  c-28.172,0-52.593,13.321-70.622,38.522c-1.352,1.889-2.617,3.779-3.802,5.649V288C266.381,288,269.884,286.778,272.703,284.335z" fill="#cf0404"/></g><g transform="matrix(0.1171877309679985 0 0 0.1171877309679985 159 254.99999989986406)" id="L1_106"><path d="M450.398,233.509c-0.901-1.799-2.099-3.598-3.598-5.099l-90.961-77.065l-89.962-77.067  c-3-2.4-6.298-3.598-9.897-3.598c-3.598,0-6.896,1.198-9.897,3.598l-89.962,77.067L65.159,228.41c-1.499,1.5-2.698,3.3-3.598,5.099  c-0.899,2.099-1.499,4.198-1.499,6.296v257.092c0,4.198,1.799,7.797,4.499,10.495c2.698,2.7,6.296,4.499,10.495,4.499h361.847  c4.198,0,7.797-1.799,10.495-4.499c2.7-2.698,4.499-6.296,4.499-10.495V239.805C451.896,237.708,451.296,235.609,450.398,233.509z" fill="#cdebfc"/><path d="M451.896,239.805v257.092c0,4.198-1.799,7.797-4.499,10.495c-2.698,2.7-6.296,4.499-10.495,4.499  H255.979V70.678c3.598,0,6.896,1.198,9.897,3.598l89.962,77.067l90.961,77.065c1.499,1.5,2.698,3.3,3.598,5.099  C451.296,235.609,451.896,237.708,451.896,239.805z" fill="#bfe1ff"/><path d="M196.005,270.993c-41.382,0-74.968,33.586-74.968,74.968v29.987c0,8.395,6.596,14.994,14.994,14.994  h119.949V300.98C241.886,282.389,219.695,270.993,196.005,270.993z" fill="#cf0404"/><path d="M390.922,345.961v29.987c0,8.395-6.596,14.994-14.994,14.994H255.979V300.98  c14.093-18.592,36.286-29.987,59.975-29.987C357.336,270.993,390.922,304.579,390.922,345.961z" fill="#368dcf"/><path d="M255.979,360.955c-41.382,0-74.968,33.586-74.968,74.968c0,8.395,6.596,14.994,14.994,14.994h119.949  c8.397,0,14.994-6.598,14.994-14.994C330.947,394.541,297.362,360.955,255.979,360.955z" fill="#ffa426"/><path d="M330.947,435.923c0,8.395-6.596,14.994-14.994,14.994h-59.975v-89.962  C297.362,360.955,330.947,394.541,330.947,435.923z" fill="#e0911b"/><path d="M496.277,190.827L285.367,10.903c-8.395-7.197-18.892-10.795-29.387-10.795  s-20.991,3.598-29.387,10.795L15.683,190.827c-18.892,16.192-20.991,44.38-4.799,63.573c16.194,18.892,44.681,20.991,63.573,4.799  l181.524-154.735l181.822,154.735c8.096,6.896,18.592,10.195,28.787,10.195c12.895,0,25.789-5.097,34.486-14.994  c7.797-9.296,11.695-20.991,10.795-32.985C510.672,209.419,505.274,198.624,496.277,190.827z" fill="#ff3f2e"/><path d="M511.871,221.415c0.901,11.994-2.998,23.689-10.795,32.985c-8.697,9.897-21.592,14.994-34.486,14.994  c-10.195,0-20.691-3.299-28.787-10.195L255.979,104.464V0.108c10.495,0,20.991,3.598,29.387,10.795l210.911,179.924  C505.274,198.624,510.672,209.419,511.871,221.415z" fill="#cf0404"/><path d="M255.979,300.98c-24.89,0-44.981,20.09-44.981,44.981c0,24.888,20.09,44.981,44.981,44.981  s44.981-20.092,44.981-44.981C300.96,321.072,280.87,300.98,255.979,300.98z" fill="#ffda45"/><path d="M300.96,345.961c0,24.888-20.09,44.981-44.981,44.981V300.98  C280.87,300.98,300.96,321.072,300.96,345.961z" fill="#ffbc36"/><path d="M196.005,300.98c-24.803,0-44.981-20.177-44.981-44.981c0-24.803,20.177-44.981,44.981-44.981  s44.981,20.177,44.981,44.981C240.986,280.803,220.809,300.98,196.005,300.98z" fill="#ff3f2e"/><path d="M315.954,300.98c-24.803,0-44.981-20.177-44.981-44.981c0-24.803,20.177-44.981,44.981-44.981  c24.803,0,44.981,20.177,44.981,44.981C360.935,280.803,340.758,300.98,315.954,300.98z" fill="#1ea1e3"/></g><g transform="matrix(0.1171875 0 0 0.1171875 313 292)" id="L1_107"><path d="M75,241c-24.814,0-45-20.186-45-45s20.186-45,45-45s45,20.186,45,45  c0,4.541-0.674,8.994-1.992,13.257c-2.572,8.301-11.872,12.983-20.552,9.199C102.348,229.679,95.359,241,75,241z" fill="#355382"/><path d="M293.2,0c-16.5,0-28.799,7.5-37.2,17.1C247.599,7.5,235.3,0,218.8,0c-29.399,0-52.2,24.3-52.2,55.499  c0,32.401,25.199,54,60.3,83.401c5.999,5.099,12.599,10.499,19.199,16.5c3.001,2.401,6.301,3.6,9.901,3.6  c3.6,0,6.899-1.199,9.901-3.6c6.599-6,13.2-11.4,19.199-16.5c10.501-9.001,20.101-16.8,28.2-24.6  c16.501-15.601,32.1-33.9,32.1-58.801C345.399,24.3,322.599,0,293.2,0z" fill="#ff3f2e"/><path d="M437,331H287.601c-3.301,37.2-11.1,118.799-14.7,150H497c8.401,0,15-6.601,15-15v-60  C512,364.6,478.4,331,437,331z" fill="#1ea1e3"/><path d="M512,406v60c0,8.399-6.599,15-15,15H377V331h60C478.4,331,512,364.6,512,406z" fill="#368dcf"/><path d="M225.3,331H75c-41.4,0-75,33.6-75,75v60c0,8.399,6.599,15,15,15h222.599L225.3,331z" fill="#ff73a5"/><path d="M237.599,481 135,481 135,331 225.3,331z" fill="#ff5f96"/><path d="M426.2,240.099l-49.2-3.3l-58.5-3.6c-7.8-0.3-15,5.4-15.899,13.2C302.3,249.399,302,252.7,302,256v30  c0,41.4,33.6,75,75,75s75-33.6,75-75v-15L426.2,240.099z" fill="#f2d1a5"/><path d="M452,271v15c0,41.4-33.6,75-75,75V236.8l49.2,3.3L452,271z" fill="#f2bb88"/><path d="M210,256v30c0,41.4-33.6,75-75,75s-75-33.6-75-75v-10.201l18.3-24.6L135,225.7l12.299-5.4  l53.401-0.601C206.4,229.6,210,242.199,210,256z" fill="#f2d1a5"/><path d="M210,256v30c0,41.4-33.6,75-75,75V225.7l12.299-5.4l53.401-0.601C206.4,229.6,210,242.199,210,256z" fill="#f2bb88"/><g><path d="M345.399,55.499c0,24.901-15.599,43.2-32.1,58.801c-8.099,7.8-17.699,15.599-28.2,24.6   c-5.999,5.099-12.599,10.499-19.199,16.5c-3.001,2.4-6.3,3.6-9.9,3.6V17.1C264.401,7.5,276.7,0,293.2,0   C322.599,0,345.399,24.3,345.399,55.499z" fill="#cf0404"/><path d="M286,392h-60c-41.4,0-75,33.6-75,75v30c0,8.399,6.599,15,15,15h180c8.401,0,15-6.601,15-15v-30   C361,425.6,327.4,392,286,392z" fill="#cf0404"/></g><path d="M361,467v30c0,8.399-6.599,15-15,15h-90V392h30C327.4,392,361,425.6,361,467z" fill="#b80000"/><path d="M256,302c-32.999,0-60,26.999-60,60c0,32.999,27.001,60,60,60s60-27.001,60-60  C316,328.999,288.999,302,256,302z" fill="#f2d1a5"/><path d="M316,362c0,32.999-27.001,60-60,60V302C288.999,302,316,328.999,316,362z" fill="#f2bb88"/><path d="M200.7,219.699l-65.7,26.1l-75,30V256c0-41.4,33.6-75,75-75C163.2,181,187.8,196.599,200.7,219.699z" fill="#3f6199"/><path d="M200.7,219.699l-65.7,26.1V181C163.2,181,187.8,196.599,200.7,219.699z" fill="#355382"/><path d="M377,181h-90c-8.401,0-15,6.599-15,15c0,41.4,33.6,75,75,75h105v-15C452,214.6,418.4,181,377,181z" fill="#3f6199"/><path d="M452,271h-75v-90c41.4,0,75,33.6,75,75V271z" fill="#355382"/></g><g transform="matrix(0.04428040608763695 0 0 0.04428040608763695 -7.335783958435059 166.66421604156494)" id="L1_109"><path d="M467,512H256l-36.563-40.313l-1.875-160.375L256,256l80.624-104.063l136-8.438L512,256v211  C512,491.814,491.814,512,467,512z" fill="#355382"/><path d="M256,256l-42.188,39.375L149.124,353.5l-83.5,1.875L0,256V45C0,20.186,20.186,0,45,0h211  l40.313,33.75v136.938L256,256z" fill="#ffda45"/><path d="M421,226c0-24.899-20.098-45-45-45s-45,20.101-45,45c0,11.4,4.2,21.901,11.4,30h-83.588h-0.938H256  v-86.4c-8.101,7.2-18.6,11.4-30,11.4c-24.902,0-45-20.099-45-45s20.098-45,45-45c11.4,0,21.899,4.2,30,11.4V0h71.25H467  c24.814,0,45,20.186,45,45v211H409.6C416.8,247.901,421,237.4,421,226z" fill="#1ea1e3"/><path d="M91,286c0,24.901,20.098,45,45,45s45-20.099,45-45c0-11.4-4.2-21.899-11.4-30H256v86.4  c8.101-7.2,18.6-11.4,30-11.4c24.899,0,45,20.099,45,45s-20.101,45-45,45c-11.4,0-21.899-4.2-30-11.4V512H45  c-24.814,0-45-20.186-45-45V256h102.4C95.2,264.101,91,274.6,91,286z" fill="#cf0404"/></g></defs><g fi:class="KUsePattern"><pattern id="pattern_L1_97" width="350" height="350" patternUnits="userSpaceOnUse"><use xlink:href="#L1_97" x="-350" y="-350"/><use xlink:href="#L1_97" x="0" y="-350"/><use xlink:href="#L1_97" x="350" y="-350"/><use xlink:href="#L1_97" x="-350" y="0"/><use xlink:href="#L1_97" x="0" y="0"/><use xlink:href="#L1_97" x="350" y="0"/><use xlink:href="#L1_97" x="-350" y="350"/><use xlink:href="#L1_97" x="0" y="350"/><use xlink:href="#L1_97" x="350" y="350"/></pattern><rect x="0" y="0" width="100%" height="100%" fill="url(#pattern_L1_97)"/></g><g fi:class="KUsePattern"><pattern id="pattern_L1_103" width="350" height="350" patternUnits="userSpaceOnUse"><use xlink:href="#L1_103" x="-350" y="-350"/><use xlink:href="#L1_103" x="0" y="-350"/><use xlink:href="#L1_103" x="350" y="-350"/><use xlink:href="#L1_103" x="-350" y="0"/><use xlink:href="#L1_103" x="0" y="0"/><use xlink:href="#L1_103" x="350" y="0"/><use xlink:href="#L1_103" x="-350" y="350"/><use xlink:href="#L1_103" x="0" y="350"/><use xlink:href="#L1_103" x="350" y="350"/></pattern><rect x="0" y="0" width="100%" height="100%" fill="url(#pattern_L1_103)"/></g><g fi:class="KUsePattern"><pattern id="pattern_L1_100" width="350" height="350" patternUnits="userSpaceOnUse"><use xlink:href="#L1_100" x="-350" y="-350"/><use xlink:href="#L1_100" x="0" y="-350"/><use xlink:href="#L1_100" x="350" y="-350"/><use xlink:href="#L1_100" x="-350" y="0"/><use xlink:href="#L1_100" x="0" y="0"/><use xlink:href="#L1_100" x="350" y="0"/><use xlink:href="#L1_100" x="-350" y="350"/><use xlink:href="#L1_100" x="0" y="350"/><use xlink:href="#L1_100" x="350" y="350"/></pattern><rect x="0" y="0" width="100%" height="100%" fill="url(#pattern_L1_100)"/></g><g fi:class="KUsePattern"><pattern id="pattern_L1_104" width="350" height="350" patternUnits="userSpaceOnUse"><use xlink:href="#L1_104" x="-350" y="-350"/><use xlink:href="#L1_104" x="0" y="-350"/><use xlink:href="#L1_104" x="350" y="-350"/><use xlink:href="#L1_104" x="-350" y="0"/><use xlink:href="#L1_104" x="0" y="0"/><use xlink:href="#L1_104" x="350" y="0"/><use xlink:href="#L1_104" x="-350" y="350"/><use xlink:href="#L1_104" x="0" y="350"/><use xlink:href="#L1_104" x="350" y="350"/></pattern><rect x="0" y="0" width="100%" height="100%" fill="url(#pattern_L1_104)"/></g><g fi:class="KUsePattern"><pattern id="pattern_L1_105" width="350" height="350" patternUnits="userSpaceOnUse"><use xlink:href="#L1_105" x="-350" y="-350"/><use xlink:href="#L1_105" x="0" y="-350"/><use xlink:href="#L1_105" x="350" y="-350"/><use xlink:href="#L1_105" x="-350" y="0"/><use xlink:href="#L1_105" x="0" y="0"/><use xlink:href="#L1_105" x="350" y="0"/><use xlink:href="#L1_105" x="-350" y="350"/><use xlink:href="#L1_105" x="0" y="350"/><use xlink:href="#L1_105" x="350" y="350"/></pattern><rect x="0" y="0" width="100%" height="100%" fill="url(#pattern_L1_105)"/></g><g fi:class="KUsePattern"><pattern id="pattern_L1_106" width="350" height="350" patternUnits="userSpaceOnUse"><use xlink:href="#L1_106" x="-350" y="-350"/><use xlink:href="#L1_106" x="0" y="-350"/><use xlink:href="#L1_106" x="350" y="-350"/><use xlink:href="#L1_106" x="-350" y="0"/><use xlink:href="#L1_106" x="0" y="0"/><use xlink:href="#L1_106" x="350" y="0"/><use xlink:href="#L1_106" x="-350" y="350"/><use xlink:href="#L1_106" x="0" y="350"/><use xlink:href="#L1_106" x="350" y="350"/></pattern><rect x="0" y="0" width="100%" height="100%" fill="url(#pattern_L1_106)"/></g><g fi:class="KUsePattern"><pattern id="pattern_L1_107" width="350" height="350" patternUnits="userSpaceOnUse"><use xlink:href="#L1_107" x="-350" y="-350"/><use xlink:href="#L1_107" x="0" y="-350"/><use xlink:href="#L1_107" x="350" y="-350"/><use xlink:href="#L1_107" x="-350" y="0"/><use xlink:href="#L1_107" x="0" y="0"/><use xlink:href="#L1_107" x="350" y="0"/><use xlink:href="#L1_107" x="-350" y="350"/><use xlink:href="#L1_107" x="0" y="350"/><use xlink:href="#L1_107" x="350" y="350"/></pattern><rect x="0" y="0" width="100%" height="100%" fill="url(#pattern_L1_107)"/></g><g fi:class="KUsePattern"><pattern id="pattern_L1_109" width="350" height="350" patternUnits="userSpaceOnUse"><use xlink:href="#L1_109" x="-350" y="-350"/><use xlink:href="#L1_109" x="0" y="-350"/><use xlink:href="#L1_109" x="350" y="-350"/><use xlink:href="#L1_109" x="-350" y="0"/><use xlink:href="#L1_109" x="0" y="0"/><use xlink:href="#L1_109" x="350" y="0"/><use xlink:href="#L1_109" x="-350" y="350"/><use xlink:href="#L1_109" x="0" y="350"/><use xlink:href="#L1_109" x="350" y="350"/></pattern><rect x="0" y="0" width="100%" height="100%" fill="url(#pattern_L1_109)"/></g></svg>