<?xml version="1.0" encoding="UTF-8" standalone="no"?>
<svg xmlns="http://www.w3.org/2000/svg" height="461px" width="1092px" version="1.1" xmlns:xlink="http://www.w3.org/1999/xlink" viewBox="0 0 1092 461"><!-- Generator: Sketch 46.2 (44496) - http://www.bohemiancoding.com/sketch -->
 <title>Title</title>
 <desc>Created with Sketch.</desc>
 <g id="1-Home" fill-rule="evenodd" fill="none">
  <g id="Image-In-Other-colours" transform="translate(-198 -200)">
   <g id="Header">
    <g id="Title" transform="translate(190 202)">
     <g id="Illustration" opacity=".8">
      <g id="Spaceship" transform="translate(903.89 79.21)">
       <circle id="Fill" cy="67.128" cx="66.662" r="66.338" fill="#2E4FB9"/>
       <g id="Outline" stroke="#5185EE" stroke-width="3" transform="translate(27 20)">
        <path id="Ship" stroke-dasharray="100,5,100,5" d="m88.885 56.352c14.745-14.383 31.245-20.842 37.515-14.727 1.59 1.55 2.38 3.617 2.38 6.373 0 7.923-6.88 19.721-17.47 30.056-0.62 0.603-1.24 1.033-1.86 1.55 0.09 0.172 0.18 0.345 0.27 0.603 0.97 4.134-1.33 17.396-17.216 21.273h-0.265c-0.353 0-0.618-0.17-0.794-0.43-0.265-0.35-0.177-0.78 0-1.121 3.972-5.34 5.561-9.56 4.855-13.263-0.442 0.258-0.883 0.517-1.236 0.689-0.177 0.086-0.353 0.172-0.53 0.172-0.265 0-0.529-0.086-0.706-0.258l-1.589-1.55-2.913 2.842c-0.176 0.172-0.441 0.258-0.706 0.258s-0.53-0.086-0.706-0.258l-9.798-9.56c-0.177-0.172-0.265-0.43-0.265-0.689 0-0.258 0.088-0.516 0.265-0.689l2.913-2.842-1.589-1.55c-0.353-0.344-0.353-0.775-0.177-1.206 0.265-0.43 0.53-0.861 0.795-1.377-3.796-0.603-13.859 4.995-14.035 4.995-0.177 0-0.353-0.087-0.53-0.173-0.353-0.258-0.53-0.603-0.441-1.033 3.972-15.502 17.654-17.741 21.891-16.794 0.176 0.086 0.353 0.086 0.529 0.173 0.442-0.345 0.883-0.948 1.413-1.464zm17.115 5.18c1.13 1.109 2.65 1.725 4.04 1.602 1.39 0 2.9-0.493 4.04-1.602 1.01-1.109 1.64-2.464 1.64-3.942 0-1.479-0.51-2.834-1.64-3.943-1.14-1.109-2.53-1.601-4.04-1.601-1.39 0-2.91 0.492-4.04 1.601-1.01 1.109-1.65 2.464-1.65 3.943 0 1.478 0.51 2.833 1.65 3.942z"/>
        <path stroke-linejoin="round" stroke-linecap="round" stroke-dasharray="100,11,23,10" d="m15.233 25.937c-6.2159 6.119-11.294 12.926-15.233 20.164h0.26263v0 0c3.852-0.431 7.8791 0.862 10.855 3.706 4.29 4.222 4.99 10.685 2.189 15.597 1.576 2.412 2.364 5.256 2.013 8.358-0.087 0.776-0.262 1.551-0.525 2.327 1.488 1.292 2.626 2.93 3.414 4.739 2.101-1.379 4.64-2.068 7.354-1.809 4.64 0.517 8.229 3.877 9.28 8.186h0.613c3.501 0.431 6.39 2.413 8.054 5.17 0.963-0.172 2.013-0.172 3.151-0.086 1.926 0.258 3.677 0.948 5.078 1.982 1.926-1.896 4.64-2.93 7.529-2.585 0.788 0.086 1.576 0.258 2.276 0.517 1.663-1.982 4.377-3.102 7.179-2.758h0.087c0.876-3.016 3.852-4.998 7.091-4.653 3.59 0.431 6.216 3.619 5.778 7.152-0.35 3.016-2.801 5.343-5.778 5.687 0 0.259 0 0.431-0.087 0.69-0.35 3.189-2.626 5.689-5.428 6.639v0.43c-0.35 3.1-2.276 5.6-4.902 6.98 0.262 1.12 0.35 2.32 0.175 3.53-0.175 1.55-0.701 3.02-1.489 4.22 4.465 1.73 7.354 6.21 6.741 11.12-0.437 3.96-3.064 7.15-6.565 8.53 5.077 1.29 8.579 6.2 7.966 11.55 5.078 0.6 8.93 4.56 9.455 9.39 2.189-1.73 4.99-2.59 7.967-2.24 5.953 0.69 10.155 5.94 9.454 11.8-0.087 0.78 0.263 1.38 0 2.16 0.175-0.09 0.438-0.09 0.613-0.17l-0.087 0.25c15.056-3.7 29.416-11.37 41.236-23 13.3-13.1 21.53-29.39 24.6-46.45 0.17-0.69 0.26-1.38 0.35-2.15 0.09-0.35 0.09-0.61 0.17-0.952 0.62-3.964 0.97-8.014 0.97-12.236 0-0.948 0-1.896-0.09-2.758 0-0.775-0.09-1.637-0.09-2.412-0.09-1.121-0.17-2.241-0.26-3.275-0.09-0.948-0.18-1.982-0.35-2.93-0.09-0.431-0.18-0.861-0.18-1.292v-0.173c-0.08-0.861-0.26-1.637-0.35-2.499-0.09-0.517-0.17-0.947-0.26-1.465v-0.172c-0.18-0.689-0.26-1.465-0.44-2.154-0.17-0.603-0.26-1.293-0.44-1.896-0.43-1.896-1.05-3.791-1.66-5.687-0.09-0.172-0.09-0.345-0.17-0.517-0.18-0.603-0.44-1.207-0.62-1.81 0-0.086 0-0.086-0.08-0.172-0.44-1.293-0.97-2.585-1.49-3.792 0 0 0-0.086-0.09-0.086-0.53-1.292-1.14-2.585-1.75-3.877v-0.087c-0.44-0.948-0.88-1.809-1.31-2.757v0c-0.18-0.259-0.27-0.517-0.44-0.776-0.18-0.258-0.26-0.517-0.44-0.775-0.52-0.948-1.05-1.81-1.58-2.758-0.17-0.344-0.35-0.603-0.61-0.948-0.52-0.947-1.14-1.809-1.66-2.671-0.18-0.258-0.35-0.517-0.53-0.775-1.57-2.327-3.24-4.481-4.99-6.635-0.17-0.259-0.35-0.431-0.52-0.69-0.7-0.862-1.4-1.637-2.19-2.499-0.26-0.258-0.53-0.517-0.79-0.861-0.7-0.776-1.49-1.552-2.19-2.241-0.17-0.172-0.35-0.431-0.52-0.603-0.09-0.086-0.18-0.172-0.27-0.259-0.87-0.775-1.66-1.637-2.53-2.412-0.79-0.69-1.58-1.379-2.37-2.069-0.26-0.258-0.52-0.43-0.79-0.689-0.87-0.689-1.75-1.379-2.62-2.068 0 0-0.09 0-0.09-0.086-15.93-12.064-35.018-18.096-54.19-18.096-22.762 0.34468-45.523 8.8756-62.857 25.937"/>
       </g>
      </g>
      <g id="Phone" stroke="#5185EE" stroke-width="3" transform="translate(168.39)">
       <g id="Outline" stroke-linejoin="round" stroke-linecap="round" transform="translate(196 94)">
        <path id="Shape" stroke-dasharray="20,5,30,20" d="m44.915 0.13626h-36.452c-4.4553 0-8.1004 3.6234-8.1004 8.0521l-0.00004 76.495c0 4.429 3.6451 8.053 8.1004 8.053h36.047c4.455 0 8.1-3.624 8.1-8.053v-76.495c0.405-4.4283-3.24-8.0517-7.695-8.0517z"/>
        <path id="Shape" d="m27.481 79.897c1.245 1.486 1.245 3.895 0 5.382-1.245 1.486-3.264 1.486-4.508 0-1.245-1.487-1.245-3.896 0-5.382 1.244-1.486 3.263-1.486 4.508 0"/>
        <polygon id="Shape" points="0.36256 12.821 52.641 12.821 52.641 73.708 0.36256 73.708" stroke-dasharray="60,20"/>
       </g>
       <g id="Path">
        <path stroke-linejoin="round" stroke-linecap="round" stroke-dasharray="1,6" d="m221.47 52.143v-14.066c0.01-25.369-12.74-38.054-38.25-38.054-38.26-0.000159-118.44-0.000159-144.97-0.000159-26.526 0-38.25 11.19-38.25 33.917 0 15.152 0.18672 67.97 0.56017 158.44"/>
        <ellipse id="End" cy="69.401" cx="221.23" rx="10.838" ry="10.782"/>
       </g>
      </g>
      <g id="Signal" transform="translate(47.609 208.55) rotate(45) translate(-37.5 -29.5)">
       <circle id="Fill" cy="29.178" cx="45.178" r="29.178" fill="#2E4FB9"/>
       <g id="Outline" stroke-linejoin="round" transform="translate(0)" stroke="#5185EE" stroke-linecap="round" stroke-width="3">
        <path id="Shape" d="m21.676 8.8794c-11.91 10.691-11.891 28.65 0 39.323"/>
        <path id="Shape" d="m12.751 0c-16.993 15.941-17.01 42.393 0 58.35"/>
        <path id="Shape" d="m31.877 39.323c-6.803-5.396-6.798-14.903 0-20.296"/>
       </g>
      </g>
      <g id="Circles" stroke-linejoin="round" stroke-linecap="round" transform="translate(30.679 29.821)">
       <rect id="Circle-1" rx="24.101" height="48.202" width="48.453" stroke="#5185EE" stroke-dasharray="1,10" y="241.9" x="-5.68e-14" stroke-width="3"/>
       <rect id="Circle-2" rx="17.759" height="35.518" width="35.702" stroke="#5185EE" stroke-dasharray="1,10" y="77" x="51.003" stroke-width="6"/>
       <rect id="Circle-3" rx="28.741" height="57.483" width="57.782" stroke="#5185EE" stroke-dasharray="1,12" y="310" x="221.86" stroke-width="6"/>
       <rect id="Circle-4" rx="15.552" height="31.103" width="31.265" stroke="#fff" stroke-dasharray="1,10" y="132.62" x="543.73" stroke-width="3"/>
       <rect id="Circle-5" rx="6.86" height="13.72" width="13.791" stroke="#5185EE" stroke-dasharray="1,10" y="0" x="733.73" stroke-width="3"/>
      </g>
      <g id="User" transform="translate(517.76 60.841)">
       <circle id="Fill" cy="27.29" cx="290.5" r="26.5" fill="#2E4FB9"/>
       <g id="Outline" stroke-linejoin="round" transform="translate(224 13)" stroke="#5185EE" stroke-linecap="round" stroke-width="3">
        <path id="Shape" stroke-dasharray="60,5,10,10" d="m40.579 0c-22.149 0-40.165 17.922-40.165 39.957 0.00036 22.032 18.016 39.957 40.165 39.957 22.147 0 40.166-17.925 40.166-39.957-0.001-22.035-18.02-39.957-40.166-39.957z"/>
        <path id="Shape" d="m66.719 69.767c-8.649-3.621-17.056-7.789-17.867-10.403v-3.512c2.312-2.377 4.136-5.691 5.215-9.571 2.574-1.816 3.25-5.585 1.091-8.253v-7.864c0-8.117-4.499-13.674-14.786-13.674-10.021 0-14.791 5.557-14.791 13.674v7.866c-2.151 2.66-1.482 6.429 1.091 8.249 1.08 3.882 2.905 7.196 5.219 9.573v3.512c-0.818 2.638-8.691 6.539-17.451 10.195"/>
       </g>
       <g id="Path" stroke="#5185EE" stroke-width="3" transform="translate(0 45.981)">
        <path stroke-linejoin="round" stroke-linecap="round" stroke-dasharray="1,6" d="m183.22 9.9022h-144.97c-26.526 0-38.25 11.191-38.25 33.918 0 15.151 0.18672 30.684 0.56017 46.599"/>
        <ellipse id="End" cy="10.782" cx="202.1" rx="10.838" ry="10.782"/>
       </g>
      </g>
      <g id="Chat" transform="translate(372.4 326.27)">
       <rect id="Fill" rx="28.349" height="56.697" width="71.752" y="38.303" x="239.25" fill="#2E4FB9"/>
       <g id="Outline" stroke-linejoin="round" transform="translate(225 52)" stroke="#5185EE" stroke-linecap="round" stroke-width="3">
        <path id="Shape" stroke-dasharray="50,20,100,20" d="m20.24 52.141c-12.278-2.194-19.551-12.863-19.551-25.858 0.00044-14.582 9.759-26.275 22.487-26.275l23.323-0.0001774c12.727 0 23.045 11.149 23.045 25.731 0 14.58-10.318 25.73-23.045 25.73h-7.347l-18.912 19.574v-18.902z"/>
        <path id="Shape" d="m47.867 60.106c3.059 4.518 7.954 7.903 13.477 7.903h6.508l10.827 10.645v-11.575c8.416-0.311 16.366-8.436 16.366-18.421 0-10.181-7.47-18.207-16.748-18.207"/>
        <path id="path-1" d="m17.266 24.109h33.152"/>
        <path id="path-1" d="m17.266 16.498h33.152"/>
        <path id="Shape" d="m17.266 32.988h15.3"/>
       </g>
       <g id="Path" stroke="#5185EE" stroke-width="3" transform="translate(106.5 45.831) scale(1 -1) translate(-106.5 -45.5)">
        <path stroke-linejoin="round" stroke-linecap="round" stroke-dasharray="1,6" d="m183.22 9.9022h-144.97c-26.526 0-38.25 11.191-38.25 33.918 7.1054e-14 15.151 0.18672 30.684 0.56017 46.599"/>
        <ellipse id="End" cy="10.782" cx="202.1" rx="10.838" ry="10.782"/>
       </g>
      </g>
      <g id="Cloud" stroke-linejoin="round" transform="translate(786.8 313.58)" stroke="#5185EE" stroke-linecap="round" stroke-width="3">
       <path stroke-dasharray="69,6,1,10" d="m130.32 88.213c-2.13-6.74-8.85-12.102-18.6-10.926-12.944-10.608-32.241-3.382-35.045 13.193-14.534 8.727-6.971 26.96 7.671 26.96h47.824c8.83 0 16.29-6.69 16.29-14.66 0-8.141-7.99-15.527-18.14-14.567z"/>
       <g id="Path" stroke-dasharray="1,6">
        <path id="Path-2" d="m147.49 4.732v13.18c0 27.077-15.22 38.055-38.26 38.055h-84.209c-35.008 0-30.507 38.054 0 38.054h30.234"/>
       </g>
      </g>
     </g>
     <path d="m621.03 301.43h65.99v-18.37h-45.79v-73.49h-20.2v91.86zm73.34 0l39.36-92.51h18.63l39.36 92.51h-21.12l-8.4-20.61h-38.84l-8.39 20.61h-20.6zm36.21-38.45h24.4l-12.2-29.79-12.2 29.79zm75.31 38.45v-91.86h42.64c10.49 0 18.76 2.89 24.01 8.14 4.2 4.2 6.29 9.32 6.29 15.61v0.27c0 10.36-5.51 16.14-12.07 19.81 10.63 4.07 17.19 10.24 17.19 22.57v0.26c0 16.8-13.64 25.2-34.37 25.2h-43.69zm19.68-54.72h18.63c8.92 0 14.56-2.89 14.56-9.71v-0.26c0-6.04-4.72-9.45-13.25-9.45h-19.94v19.42zm0 37h24.01c8.92 0 14.3-3.15 14.3-9.97v-0.26c0-6.17-4.59-9.98-14.96-9.98h-23.35v20.21zm107.71 19.03c19.81 0 33.72-10.24 33.72-28.48v-0.26c0-16.01-10.5-22.7-29.13-27.55-15.87-4.07-19.81-6.04-19.81-12.08v-0.26c0-4.46 4.07-8 11.81-8s15.74 3.41 23.88 9.05l10.49-15.22c-9.31-7.48-20.72-11.68-34.11-11.68-18.76 0-32.14 11.02-32.14 27.69v0.26c0 18.24 11.94 23.36 30.44 28.08 15.35 3.94 18.5 6.56 18.5 11.68v0.26c0 5.38-4.99 8.66-13.25 8.66-10.5 0-19.16-4.33-27.43-11.15l-11.93 14.3c11.02 9.84 25.05 14.7 38.96 14.7zm-881.28-1.31h6.56v-79.78l36.342 52.88h0.525l36.343-52.88v79.78h6.82v-91.86h-6.43l-36.864 54.33-36.867-54.33h-6.429v91.86zm114.8 0h6.82v-91.86h-6.82v91.86zm66.12 1.31c17.72 0 30.44-10.24 30.44-25.06v-0.27c0-13.38-8.92-20.99-30.17-25.32-21.78-4.46-26.77-10.37-26.77-20.08v-0.26c0-9.58 8.92-17.32 22.44-17.32 10.1 0 18.76 2.89 27.42 10.37l4.33-5.38c-9.32-7.48-18.11-11.16-31.49-11.16-17.06 0-29.52 10.5-29.52 24.15v0.26c0 13.91 8.92 21.39 30.96 25.85 20.86 4.2 25.98 9.84 25.98 19.55v0.26c0 10.5-9.45 18.24-23.22 18.24-13.52 0-22.83-4.33-32.93-13.65l-4.46 5.12c11.02 9.84 22.3 14.7 36.99 14.7zm83.97 0c17.71 0 30.44-10.24 30.44-25.06v-0.27c0-13.38-8.92-20.99-30.18-25.32-21.78-4.46-26.76-10.37-26.76-20.08v-0.26c0-9.58 8.92-17.32 22.43-17.32 10.11 0 18.76 2.89 27.42 10.37l4.33-5.38c-9.31-7.48-18.1-11.16-31.48-11.16-17.06 0-29.52 10.5-29.52 24.15v0.26c0 13.91 8.92 21.39 30.96 25.85 20.86 4.2 25.98 9.84 25.98 19.55v0.26c0 10.5-9.45 18.24-23.23 18.24-13.51 0-22.82-4.33-32.93-13.65l-4.46 5.12c11.02 9.84 22.31 14.7 37 14.7zm53.79-1.31h6.82v-91.86h-6.82v91.86zm77.02 1.57c-27.82 0-46.05-22.18-46.05-47.24v-0.26c0-25.06 18.49-47.5 46.31-47.5 27.81 0 46.05 22.18 46.05 47.24v0.26c0 25.06-18.5 47.5-46.31 47.5zm0.26-6.17c22.7 0 38.96-18.37 38.96-41.07v-0.26c0-22.7-16.53-41.33-39.22-41.33-22.7 0-38.97 18.37-38.97 41.07v0.26c0 22.7 16.53 41.33 39.23 41.33zm69.27 4.6h6.56v-81.62l64.68 81.62h5.12v-91.86h-6.56v79.91l-63.37-79.91h-6.43v91.86z" fill="#fff"/>
    </g>
   </g>
  </g>
 </g>
</svg>
